<?xml version="1.0" encoding="UTF-8"?>
<svg xmlns="http://www.w3.org/2000/svg" width="135" height="150">
<path d="m24,130c-2.34-2.7-4.25-5.38-4.25-5.94c0-.55 1.38-1.82 3.06-2.81c1.68-1 7.05-6.42 11.92-12.06l8.86-10.25l0.66,3.02c0.57,2.6-.44,4.82-7.02,15.54c-4.22,6.88-7.98,13.62-8.34,14.98c-.64,2.4-.77,2.33-4.9-2.47m34,2.22c-1.8-.22-3.23-.7-3.22-1.09c0-.38-1.2-18.8-2.69-40.92c-1.5-22.13-2.43-40.52-2.09-40.86c0.35-.35 2.17,.32 4.06,1.48c2.63,1.63 5.1,2.1 10.44,2.11c6.43,0 7.07-.2 7.62-2.25c0.9-3.4 0.72-20.1-.35-30.24c-.54-5.12-.57-9.36-.07-9.86c0.5-.5 2.74,.42 5.21,2.12c7.87,5.43 7.87,5.43 8.54,21.11l0.6,14.12h6.8c6,0 7.02-.3 8.58-2.35l1.78-2.35l6.21,4.1c3.42,2.26 6.43,4.9 6.69,5.9c0.44,1.67-8.83,74.68-9.84,77.46c-.85,2.33-3.14,1.26-4.82-2.25l-1.67-3.5l-14.45,0c-7.95,0-15.55,.42-16.89,.93c-1.38,.52-2.9,2.27-3.51,4c-.59,1.69-1.66,3-2.37,2.91c-.72,0-2.76-.34-4.55-.56m17.75-27.78v-8.5h-13v6.92c0,9.86 0.16,10.08 7.11,10.08h5.89v-8.5m21.66,7.89c1.85-.5 2.26-1.56 2.86-7.55c0.38-3.83 0.54-7.11 0.34-7.27c-.2-.17-3.17-.62-6.61-.99l-6.25-.68v17.1l3.75-.01c2.06,0 4.72-.27 5.91-.59m-23.58-37.39c-.1-5.78-.53-10.85-.95-11.27c-.42-.42-3.2-.4-6.19,.03l-5.43,.8l0.29,9.42c0.16,5.18 0.43,9.57 0.61,9.75c0.53,.53 9,2.1 10.48,1.92c1-.12 1.34-2.34 1.19-10.65m29.76,.25c1.71-15.77 2.46-14.25-7.09-14.23c-4.54,0-8.76,.35-9.38,.75c-.8,.5-.98,4.3-.61,12.48l0.52,11.75h15.4l1.16-10.75m-88.29,12.5c-.2-.7-1.3-4-2.4-7.48l-2.01-6.23l4.16,2.12c3.73,2 5.26,2.06 14.93,1.55c9.65-.5 10.77-.4 10.77,1.11c0,1.24-3,2.8-11.75,5.93c-13,4.74-13.16,4.75-13.7,3m7.5-42.2c-6.3-1.77-11.58-3.63-11.74-4.14c-.16-.5 0.53-3.62 1.53-6.92l1.82-6l3.91,4.16c2.15,2.3 7.38,6.25 11.61,8.8c5.34,3.2 7.53,5.08 7.14,6c-.7,1.84-.6,1.85-14.29-1.99z"/>
</svg>