<?xml version="1.0" encoding="iso-8859-1"?>
<!-- Generator: Adobe Illustrator 19.0.0, SVG Export Plug-In . SVG Version: 6.00 Build 0)  -->
<svg version="1.1" id="Capa_1" xmlns="http://www.w3.org/2000/svg" xmlns:xlink="http://www.w3.org/1999/xlink" x="0px" y="0px"
	 viewBox="0 0 512 512" style="enable-background:new 0 0 512 512;" xml:space="preserve">
<path style="fill:#EE5B55;" d="M484.5,453.5h-457c-11.046,0-20-8.954-20-20V175.568c0-11.046,8.954-20,20-20h457
	c11.046,0,20,8.954,20,20V433.5C504.5,444.546,495.546,453.5,484.5,453.5z"/>
<path style="fill:#C35243;" d="M49.242,453.5H26.914c-10.722,0-19.414-8.606-19.414-19.221V174.79
	c0-10.616,8.692-19.221,19.414-19.221h22.328c-10.722,0-19.414,8.606-19.414,19.221v259.489
	C29.828,444.894,38.52,453.5,49.242,453.5z"/>
<path style="fill:#DC5B4D;" d="M270.561,72.916c0,7.962-6.519,14.416-14.561,14.416s-14.561-6.454-14.561-14.416
	S247.959,58.5,256,58.5C264.041,58.5,270.561,64.954,270.561,72.916z"/>
<g>
	<path style="fill:#FA7C72;" d="M75.449,338.172c0,7.962-6.519,14.416-14.561,14.416s-14.561-6.454-14.561-14.416
		s6.519-14.416,14.561-14.416S75.449,330.21,75.449,338.172z M60.889,189.206c-8.041,0-14.561,6.454-14.561,14.416
		s6.519,14.416,14.561,14.416s14.561-6.454,14.561-14.416C75.449,195.66,68.93,189.206,60.889,189.206z M140.486,391.03
		c-8.041,0-14.561,6.454-14.561,14.416c0,7.962,6.519,14.416,14.561,14.416s14.561-6.454,14.561-14.416
		C155.047,397.485,148.528,391.03,140.486,391.03z M299.682,391.03c-8.041,0-14.561,6.454-14.561,14.416
		c0,7.962,6.519,14.416,14.561,14.416s14.561-6.454,14.561-14.416C314.242,397.485,307.723,391.03,299.682,391.03z M220.084,189.206
		c-8.041,0-14.561,6.454-14.561,14.416s6.519,14.416,14.561,14.416s14.561-6.454,14.561-14.416
		C234.645,195.66,228.125,189.206,220.084,189.206z M379.279,189.206c-8.041,0-14.561,6.454-14.561,14.416
		s6.519,14.416,14.561,14.416s14.561-6.454,14.561-14.416C393.84,195.66,387.321,189.206,379.279,189.206z M458.877,285.313
		c8.041,0,14.561-6.454,14.561-14.416s-6.519-14.416-14.561-14.416s-14.561,6.454-14.561,14.416
		C444.316,278.858,450.835,285.313,458.877,285.313z M458.877,391.03c-8.041,0-14.561,6.454-14.561,14.416
		c0,7.962,6.519,14.416,14.561,14.416s14.561-6.454,14.561-14.416C473.438,397.485,466.918,391.03,458.877,391.03z"/>
	<path style="fill:#FA7C72;" d="M254.128,405.447c0,18.615-15.242,33.706-34.044,33.706s-34.044-15.091-34.044-33.706
		c0-18.616,15.242-33.706,34.044-33.706C238.886,371.74,254.128,386.831,254.128,405.447z M379.279,371.839
		c-18.747,0-33.944,15.046-33.944,33.607s15.197,33.607,33.944,33.607s33.944-15.046,33.944-33.607
		C413.223,386.886,398.026,371.839,379.279,371.839z M60.889,371.839c-18.747,0-33.944,15.046-33.944,33.607
		s15.197,33.607,33.944,33.607s33.944-15.046,33.944-33.607C94.833,386.886,79.635,371.839,60.889,371.839z M60.889,237.289
		c-18.747,0-33.944,15.046-33.944,33.607s15.197,33.607,33.944,33.607s33.944-15.046,33.944-33.607
		C94.833,252.336,79.635,237.289,60.889,237.289z M299.682,170.015c-18.747,0-33.944,15.046-33.944,33.607
		s15.197,33.607,33.944,33.607s33.944-15.046,33.944-33.607C333.625,185.061,318.428,170.015,299.682,170.015z M140.486,170.015
		c-18.747,0-33.944,15.046-33.944,33.607s15.197,33.607,33.944,33.607s33.944-15.046,33.944-33.607S159.233,170.015,140.486,170.015
		z M458.877,304.564c-18.747,0-33.944,15.046-33.944,33.607s15.197,33.607,33.944,33.607s33.944-15.046,33.944-33.607
		C492.821,319.611,477.624,304.564,458.877,304.564z M458.877,237.328c18.802,0,34.044-15.091,34.044-33.706
		c0-18.616-15.242-33.706-34.044-33.706s-34.044,15.091-34.044,33.706S440.075,237.328,458.877,237.328z"/>
</g>
<path style="fill:#FFBDA6;" d="M75.449,270.897c0,7.962-6.519,14.416-14.561,14.416s-14.561-6.454-14.561-14.416
	s6.519-14.416,14.561-14.416S75.449,262.935,75.449,270.897z M60.889,391.03c-8.041,0-14.561,6.454-14.561,14.416
	c0,7.962,6.519,14.416,14.561,14.416s14.561-6.454,14.561-14.416C75.449,397.485,68.93,391.03,60.889,391.03z M220.084,391.03
	c-8.041,0-14.561,6.454-14.561,14.416c0,7.962,6.519,14.416,14.561,14.416s14.561-6.454,14.561-14.416
	C234.645,397.485,228.125,391.03,220.084,391.03z M379.279,391.03c-8.041,0-14.561,6.454-14.561,14.416
	c0,7.962,6.519,14.416,14.561,14.416s14.561-6.454,14.561-14.416C393.84,397.485,387.321,391.03,379.279,391.03z M140.486,189.206
	c-8.041,0-14.561,6.454-14.561,14.416s6.519,14.416,14.561,14.416s14.561-6.454,14.561-14.416
	C155.047,195.66,148.528,189.206,140.486,189.206z M299.682,189.206c-8.041,0-14.561,6.454-14.561,14.416
	s6.519,14.416,14.561,14.416s14.561-6.454,14.561-14.416C314.242,195.66,307.723,189.206,299.682,189.206z M458.877,323.755
	c-8.041,0-14.561,6.454-14.561,14.416s6.519,14.416,14.561,14.416s14.561-6.454,14.561-14.416
	C473.438,330.21,466.918,323.755,458.877,323.755z M458.877,218.038c8.041,0,14.561-6.454,14.561-14.416
	s-6.519-14.416-14.561-14.416s-14.561,6.454-14.561,14.416C444.316,211.583,450.835,218.038,458.877,218.038z"/>
<path d="M220.084,225.538c12.164,0,22.061-9.832,22.061-21.916s-9.896-21.916-22.061-21.916s-22.061,9.832-22.061,21.916
	S207.92,225.538,220.084,225.538z M220.084,196.706c3.894,0,7.061,3.103,7.061,6.916s-3.167,6.916-7.061,6.916
	s-7.061-3.103-7.061-6.916S216.19,196.706,220.084,196.706z M220.084,427.363c12.164,0,22.061-9.832,22.061-21.917
	c0-12.084-9.896-21.916-22.061-21.916s-22.061,9.832-22.061,21.916C198.023,417.531,207.92,427.363,220.084,427.363z
	 M220.084,398.53c3.894,0,7.061,3.103,7.061,6.916c0,3.814-3.167,6.917-7.061,6.917s-7.061-3.103-7.061-6.917
	C213.023,401.633,216.19,398.53,220.084,398.53z M379.279,383.53c-12.164,0-22.061,9.832-22.061,21.916
	c0,12.085,9.896,21.917,22.061,21.917s22.061-9.832,22.061-21.917C401.34,393.362,391.443,383.53,379.279,383.53z M379.279,412.363
	c-3.894,0-7.061-3.103-7.061-6.917c0-3.813,3.167-6.916,7.061-6.916s7.061,3.103,7.061,6.916
	C386.34,409.26,383.173,412.363,379.279,412.363z M200.404,323.755c0-11.396-6.123-21.398-15.276-26.937
	c3.49-4.516,5.569-10.175,5.569-16.311c0-14.734-11.987-26.722-26.722-26.722h-39.021c-4.143,0-7.5,3.358-7.5,7.5v86.497
	c0,4.142,3.357,7.5,7.5,7.5h43.682C186.153,355.282,200.404,341.139,200.404,323.755z M132.455,268.786h31.521
	c6.463,0,11.722,5.258,11.722,11.722c0,6.463-5.259,11.721-11.722,11.721h-31.521V268.786z M132.455,307.229h36.182
	c9.246,0,16.768,7.414,16.768,16.527s-7.521,16.527-16.768,16.527h-36.182L132.455,307.229L132.455,307.229z M140.486,225.538
	c12.164,0,22.061-9.832,22.061-21.916s-9.896-21.916-22.061-21.916s-22.061,9.832-22.061,21.916S128.322,225.538,140.486,225.538z
	 M140.486,196.706c3.894,0,7.061,3.103,7.061,6.916s-3.167,6.916-7.061,6.916s-7.061-3.103-7.061-6.916
	S136.593,196.706,140.486,196.706z M118.426,405.446c0,12.085,9.896,21.917,22.061,21.917s22.061-9.832,22.061-21.917
	c0-12.084-9.896-21.916-22.061-21.916S118.426,393.362,118.426,405.446z M147.547,405.446c0,3.814-3.167,6.917-7.061,6.917
	s-7.061-3.103-7.061-6.917c0-3.813,3.167-6.916,7.061-6.916S147.547,401.633,147.547,405.446z M458.877,360.088
	c12.164,0,22.061-9.832,22.061-21.916c0-12.085-9.896-21.917-22.061-21.917s-22.061,9.832-22.061,21.917
	C436.816,350.256,446.713,360.088,458.877,360.088z M458.877,331.255c3.894,0,7.061,3.103,7.061,6.917
	c0,3.813-3.167,6.916-7.061,6.916s-7.061-3.103-7.061-6.916C451.816,334.358,454.983,331.255,458.877,331.255z M458.877,225.538
	c12.164,0,22.061-9.832,22.061-21.916s-9.896-21.916-22.061-21.916s-22.061,9.832-22.061,21.916S446.713,225.538,458.877,225.538z
	 M458.877,196.706c3.894,0,7.061,3.103,7.061,6.916s-3.167,6.916-7.061,6.916s-7.061-3.103-7.061-6.916
	S454.983,196.706,458.877,196.706z M60.889,383.53c-12.164,0-22.061,9.832-22.061,21.916c0,12.085,9.896,21.917,22.061,21.917
	s22.061-9.832,22.061-21.917C82.949,393.362,73.053,383.53,60.889,383.53z M60.889,412.363c-3.894,0-7.061-3.103-7.061-6.917
	c0-3.813,3.167-6.916,7.061-6.916s7.061,3.103,7.061,6.916C67.949,409.26,64.782,412.363,60.889,412.363z M458.877,427.363
	c12.164,0,22.061-9.832,22.061-21.917c0-12.084-9.896-21.916-22.061-21.916s-22.061,9.832-22.061,21.916
	C436.816,417.531,446.713,427.363,458.877,427.363z M458.877,398.53c3.894,0,7.061,3.103,7.061,6.916
	c0,3.814-3.167,6.917-7.061,6.917s-7.061-3.103-7.061-6.917C451.816,401.633,454.983,398.53,458.877,398.53z M60.889,316.255
	c-12.164,0-22.061,9.832-22.061,21.917c0,12.084,9.896,21.916,22.061,21.916s22.061-9.832,22.061-21.916
	C82.949,326.087,73.053,316.255,60.889,316.255z M60.889,345.088c-3.894,0-7.061-3.103-7.061-6.916c0-3.814,3.167-6.917,7.061-6.917
	s7.061,3.103,7.061,6.917C67.949,341.985,64.782,345.088,60.889,345.088z M60.889,181.706c-12.164,0-22.061,9.832-22.061,21.916
	s9.896,21.916,22.061,21.916s22.061-9.832,22.061-21.916S73.053,181.706,60.889,181.706z M60.889,210.538
	c-3.894,0-7.061-3.103-7.061-6.916s3.167-6.916,7.061-6.916s7.061,3.103,7.061,6.916S64.782,210.538,60.889,210.538z M60.889,248.98
	c-12.164,0-22.061,9.832-22.061,21.916c0,12.085,9.896,21.917,22.061,21.917s22.061-9.832,22.061-21.917
	C82.949,258.812,73.053,248.98,60.889,248.98z M60.889,277.813c-3.894,0-7.061-3.103-7.061-6.917c0-3.813,3.167-6.916,7.061-6.916
	s7.061,3.103,7.061,6.916C67.949,274.71,64.782,277.813,60.889,277.813z M379.279,181.706c-12.164,0-22.061,9.832-22.061,21.916
	s9.896,21.916,22.061,21.916s22.061-9.832,22.061-21.916S391.443,181.706,379.279,181.706z M379.279,210.538
	c-3.894,0-7.061-3.103-7.061-6.916s3.167-6.916,7.061-6.916s7.061,3.103,7.061,6.916S383.173,210.538,379.279,210.538z
	 M458.877,292.813c12.164,0,22.061-9.832,22.061-21.917c0-12.084-9.896-21.916-22.061-21.916s-22.061,9.832-22.061,21.916
	C436.816,282.981,446.713,292.813,458.877,292.813z M458.877,263.98c3.894,0,7.061,3.103,7.061,6.916
	c0,3.814-3.167,6.917-7.061,6.917s-7.061-3.103-7.061-6.917C451.816,267.083,454.983,263.98,458.877,263.98z M321.742,203.622
	c0-12.084-9.896-21.916-22.061-21.916s-22.061,9.832-22.061,21.916s9.896,21.916,22.061,21.916S321.742,215.706,321.742,203.622z
	 M292.621,203.622c0-3.813,3.167-6.916,7.061-6.916s7.061,3.103,7.061,6.916s-3.167,6.916-7.061,6.916
	S292.621,207.435,292.621,203.622z M326.596,347.782v-30.943h36.182c9.246,0,16.768,7.414,16.768,16.527v14.416
	c0,4.142,3.357,7.5,7.5,7.5s7.5-3.358,7.5-7.5v-14.416c0-9.615-4.36-18.239-11.221-24.027c6.86-5.788,11.221-14.412,11.221-24.027
	c0-17.384-14.251-31.527-31.768-31.527h-43.682c-4.143,0-7.5,3.358-7.5,7.5v86.497c0,4.142,3.357,7.5,7.5,7.5
	S326.596,351.924,326.596,347.782z M326.596,268.786h36.182c9.246,0,16.768,7.414,16.768,16.527s-7.521,16.527-16.768,16.527
	h-36.182V268.786z M299.682,427.363c12.164,0,22.061-9.832,22.061-21.917c0-12.084-9.896-21.916-22.061-21.916
	s-22.061,9.832-22.061,21.916C277.621,417.531,287.518,427.363,299.682,427.363z M299.682,398.53c3.894,0,7.061,3.103,7.061,6.916
	c0,3.814-3.167,6.917-7.061,6.917s-7.061-3.103-7.061-6.917C292.621,401.633,295.788,398.53,299.682,398.53z M485.086,148.068
	h-54.742c-0.3-0.218-0.619-0.417-0.958-0.594L277.584,68.372C275.472,58.46,266.597,51,256,51s-19.472,7.46-21.584,17.372
	L81.69,147.956c-0.07,0.037-0.14,0.074-0.208,0.113H26.914C12.073,148.068,0,160.055,0,174.79v259.489
	C0,449.013,12.073,461,26.914,461h359.16c4.143,0,7.5-3.358,7.5-7.5s-3.357-7.5-7.5-7.5H26.914C20.345,446,15,440.742,15,434.279
	V174.79c0-6.463,5.345-11.721,11.914-11.721H170c4.143,0,7.5-3.358,7.5-7.5s-3.357-7.5-7.5-7.5h-56.066l123.02-64.104
	c3.832,6.496,10.936,10.868,19.047,10.868c8.111,0,15.215-4.372,19.047-10.868l123.019,64.104H199.121c-4.143,0-7.5,3.358-7.5,7.5
	s3.357,7.5,7.5,7.5h285.965c6.569,0,11.914,5.258,11.914,11.721v259.489c0,6.463-5.345,11.721-11.914,11.721h-69.891
	c-4.143,0-7.5,3.358-7.5,7.5s3.357,7.5,7.5,7.5h69.891C499.927,461,512,449.013,512,434.279V174.79
	C512,160.055,499.927,148.068,485.086,148.068z M256,79.832c-3.894,0-7.061-3.103-7.061-6.916S252.106,66,256,66
	c3.894,0,7.061,3.103,7.061,6.916S259.894,79.832,256,79.832z M279.952,350.175c1.322,3.925,5.578,6.038,9.501,4.715
	c3.926-1.322,6.037-5.575,4.716-9.501l-9.654-28.674c-0.033-0.107-0.069-0.213-0.106-0.318l-17.826-52.946
	c-1.947-5.781-7.37-9.665-13.496-9.665c-6.127,0-11.551,3.885-13.496,9.666l-17.82,52.931c-0.042,0.114-0.081,0.23-0.117,0.347
	l-9.649,28.659c-1.321,3.926,0.79,8.179,4.715,9.501c0.794,0.267,1.601,0.394,2.395,0.394c3.131,0,6.053-1.977,7.107-5.109
	l7.987-23.725h37.758L279.952,350.175z M239.258,311.45l13.829-41.075l13.828,41.075H239.258z"/>
<g>
</g>
<g>
</g>
<g>
</g>
<g>
</g>
<g>
</g>
<g>
</g>
<g>
</g>
<g>
</g>
<g>
</g>
<g>
</g>
<g>
</g>
<g>
</g>
<g>
</g>
<g>
</g>
<g>
</g>
</svg>
