<?xml version="1.0" encoding="iso-8859-1"?>
<!-- Generator: Adobe Illustrator 19.0.0, SVG Export Plug-In . SVG Version: 6.00 Build 0)  -->
<svg version="1.1" id="Capa_1" xmlns="http://www.w3.org/2000/svg" xmlns:xlink="http://www.w3.org/1999/xlink" x="0px" y="0px"
	 viewBox="0 0 511.998 511.998" style="enable-background:new 0 0 511.998 511.998;" xml:space="preserve">
<path style="fill:#EC9B5E;" d="M53.114,142.521c6.153-3.021,14.243-3.374,20.957-4.481c2.671-0.44,7.081-2.422,9.556-1.058
	c-1.927,7.538,4.407,21.955,13.397,19.704c4.803-1.202,10.449-5.01,11.433-10.208c1.062-5.611-2.35-7.574,4.719-7.625
	c20.695-0.149,41.207,1.333,61.946-0.409c31.342-2.632,63.045-4.337,94.403-1.74c10.848,0.898,21.166,0.444,32.019,0.091
	c14.152-0.461,28.496,1.915,42.456-0.839c6.242-1.231,8.946-2.078,11.964,3.716c2.406,4.62,1.328,10.397,6.147,13.633
	c6.102,4.097,14.038,3.505,17.698-2.841c3.812-6.611,1.441-16.802,11.22-17.312c3.318-0.173,10.334-0.139,13.087,2.007
	c3.064,2.388,4.447,10.957,5.187,14.556c4.634,22.538,1.261,45.34,2.233,68.165c0.584,13.72-1.103,27.489-0.023,41.162
	c0.978,12.385,0.945,25.111,0.927,37.537c-0.018,11.749-1.535,23.889-0.799,35.568c0.398,6.307,1.185,12.366,0.838,18.699
	c-0.275,5.001-0.645,9.527,1.559,14.133c3.599,7.52,6.876,17.533-1.704,23.453c-7.207,4.972-17.548,4.491-25.894,5.157
	c-11.604,0.926-23.375-0.266-34.999-0.497c-29.746-0.59-59.687-0.063-89.409-1.335c-28.375-1.214-56.897,0.198-85.215-2.251
	c-23.099-1.998-46.353-1.696-69.511-2.149c-17.391-0.34-35.235,1.611-52.507-0.297c-9.441-1.043-11.871-3.609-11.869-13.446
	c0.005-27.294-0.917-54.558-1.88-81.813c-0.448-12.662-1.341-25.159-0.829-37.908c0.507-12.642,1.44-25.291,1.068-37.95
	c-0.441-15.005-0.793-29.956,0.577-44.928c0.671-7.335,1.805-15.045,1.879-22.385C43.79,144.096,49.259,144.414,53.114,142.521z"/>
<path style="fill:#E28749;" d="M132.339,242.294c-14.646-16.625-26.03-33.757-32.395-55.013c-1.167-3.899-1.924-7.844-2.729-11.826
	c-1.106-5.475-1.448-11.33-3.462-16.567c-1.822-4.737-3.992-9.085-5.704-14.013c-0.963-2.773-1.44-7.088-4.177-8.692
	c-2.653-1.554-7.131-0.085-9.96,0.136c-8.435,0.66-15.867,0.384-23.354,4.979c-8.85,5.432-10.111,19.526-9.353,28.717
	c1.119,13.561-2.301,28.156-2.776,41.928c-0.656,19.042,1.177,39.052,2.271,58.076c1.153,20.045,1.998,39.56,1.108,59.664
	c-0.694,15.675-2.461,32.297-0.618,47.946c1.35,11.461,12.483,14.674,22.857,14.97c20.916,0.598,42.152-1.986,63.137-1.974
	c20.608,0.012,41.323-1.134,61.904-0.1c11.606,0.583,24.69,3.623,36.21,2.584c3.965-0.358,6.994-2.268,11.146-2.232
	c4.348,0.038,8.647,1.014,12.989,1.08c15.561,0.238,30.588-5.06,46.046-5.133c4.681-0.022,9.004,1.684,13.65,1.891
	c7.37,0.33,15.14-0.324,22.504-0.808c11.102-0.73,22.218-1.395,33.349-1.366c8.925,0.023,17.797-0.302,26.66,0.734
	c4.191,0.49,10.019,2.06,14.125,0.619c8.562-3.005,4.821-18.811,3.004-25.083c-4.553-15.717-17.248-17.376-31.761-19.434
	c-29.249-4.146-56.604-16.038-85.361-22.418c-18.856-4.183-38.197-8.457-56.061-15.991c-4.605-1.942-9.251-4.817-14.039-7.171
	c-4.272-2.1-8.657-3.786-13.225-4.026c-9.573-0.502-17.315-4.65-25.646-9.563C164.255,273.347,146.471,258.336,132.339,242.294z"/>
<path style="fill:#C1682B;" d="M155.779,415.071c7.009-0.426,14.084,0.746,21.198,0.208c13.361-1.01,26.62-1.241,40.003-0.706
	c22.594,0.903,45.775,1.575,68.351,0.498c9.915-0.473,19.229,1.574,29.042,1.458c12.712-0.15,25.427-0.193,38.134-0.622
	c10.691-0.361,23.111-0.965,33.389-4.076c4.774-1.445,27.035-14.926,23.322-22.017c-1.726-3.296-8.431-2.381-11.259-2.435
	c-7.402-0.141-14.849-0.011-22.278-0.011c-20.072,0-40.023,1.04-60.112,0.386c-14.097-0.459-28.002,2.65-42.069,2.928
	c-13.628,0.269-27.432-0.869-41.118-0.91c-29.975-0.091-59.949-0.253-89.924-0.358c-21.009-0.073-42.062-0.368-63.037-0.436
	c-6.375-0.021-37.961-4.778-28.607,9.417c10.48,15.906,31.362,19.162,48.594,19.122
	C119.828,417.468,139.876,418.731,155.779,415.071z"/>
<g>
	<path style="fill:#FFC94E;" d="M368.848,77.745c-4.854,0.285-7.671,9.74-8.563,13.525c-2.209,9.371-2.082,19.601-2.527,29.159
		c-0.338,7.261-1.132,14.377-1.132,21.688c0,3.671-0.628,7.714,1.324,10.996c4.823,8.108,15.877,6.375,20.761-0.314
		c7.999-10.954,6.338-24.757,5.17-37.476c-0.764-8.329-0.629-17.223-2.202-25.393C380.074,81.586,377.136,74.763,368.848,77.745z"/>
	<path style="fill:#FFC94E;" d="M106.891,83.041c0.486,17.991,5.488,35.774,4.391,53.874c-0.277,4.565-0.474,10.778-2.852,14.884
		c-2.33,4.023-5.827,4.129-10.174,4.483c-12.325,1.004-14.563-8.236-14.178-19.068c0.276-7.766,1.887-15.417,2.036-23.191
		c0.124-6.51-0.403-12.956-0.407-19.43c-0.004-6.703,0.143-13.263,7.212-16.37c4.081-1.794,7.423-1.962,10.08,1.306
		C105.41,82.496,107.789,86.45,106.891,83.041z"/>
	<path style="fill:#FFC94E;" d="M44.559,64.301c11-7.187,24.145-7.453,27.705-21.91c2.469-10.027,2.167-18.571-5.552-26.366
		C59.974,9.222,47.704,3.998,38.35,2.457C31.651,1.354,24.765,3.3,19.811,8.172c-2.755,2.709-6.919,9.48-7.059,13.668
		c-0.123,3.7,2.083,9.825,4.099,12.873c1.246,1.883,2.443,3.282,4.475,4.344c1.427,0.745,3.84,0.398,4.521,2.013
		c1.589,3.768-9.137,14.901-10.821,18.207c-4.182,8.211-8.799,19.262-8.374,28.542c0.407,8.893,4.212,19.288,12.219,24.077
		c7.067,4.226,17.44,4.934,25.492,5.382c10.95,0.61,22.809,1.742,33.602,1.228c10.473-0.499,9.357-19.852,4.601-26.402
		c-2.456-3.383-6.42-2.867-10.45-2.483c-8.2,0.782-14.555,2.571-22.759,0.348c-6.627-1.796-11.816-4.396-13.919-11.423
		C33.152,70.907,37.865,67.35,44.559,64.301z"/>
	<path style="fill:#FFC94E;" d="M111.78,87.522c6.054,0.991,12.059,0.788,18.205,0.497c12.973-0.614,25.867,0.559,38.821,0.009
		c28.059-1.19,56.392-2.015,84.442-1.3c32.561,0.83,65.225,2.792,97.673,2.827c9.79,0.011,10.568,3.335,10.201,12.222
		c-0.108,2.604,0.271,10.548-1.219,12.851c-2.053,3.173-7.809,1.544-10.952,1.21c-52.25-5.547-104.507-1.97-156.878-1.001
		c-24.244,0.449-48.336,0.794-72.545,0.794c-3.734,0-8.449,0.726-10.721-2.898C105.552,107.54,108.757,96.035,111.78,87.522z"/>
	<path style="fill:#FFC94E;" d="M381.885,85.893c4.629,6.892,1.184,18.213,3.566,26.073c2.93,9.673,12.775,5.301,20.878,4.924
		c8.169-0.38,15.721,1.103,23.638,2.001c3.221,0.365,7.324-0.329,8.544,2.845c0.951,2.472-1.175,6.243-2.117,8.339
		c-1.867,4.155-3.3,7.853-3.6,12.481c-0.589,9.081,3.671,16.121,11.806,20.092c3.803,1.857,8.235,0.436,11.584,2.226
		c4.308,2.301,4.387,9.746,4.644,13.877c0.944,15.211,2.434,30.642,1.531,45.889c-1.179,19.898-2.62,39.886-4.292,59.747
		c-1.573,18.68,0.042,37.331,0.001,56.048c-0.071,32.833,4.767,65.868,2.455,98.692c-1.154,16.378-2.816,36.564,3.228,52.228
		c4.003,10.376,20.531,15.996,29.698,8.545c11.525-9.369,10.758-30.489,10.662-43.605c-0.157-21.45-3.288-43.062-3.991-64.549
		c-0.548-16.74-0.814-33.487-1.401-50.226c-0.548-15.631-0.006-30.842-0.3-46.462c-0.488-25.899-2.676-51.62-2.025-77.57
		c0.522-20.802,2.817-41.541,2.82-62.356c0.001-7.446-0.282-14.421-1.376-21.796c-1.037-6.993-3.063-13.917-2.726-21.048
		c0.312-6.601,1.006-12.827-0.372-19.42c-1.761-8.426-11.261-6.819-18.318-7.175c-12.655-0.638-25.297-1.281-37.95-2.057
		c-13.137-0.805-26.67-0.886-39.84-1.013C393.917,82.579,382.011,80.125,381.885,85.893z"/>
	<path style="fill:#FFC94E;" d="M256.406,214.631c0,19.399-1.86,38.741-1.628,58.175c0.185,15.471,1.502,30.841,0.798,46.322
		c-0.393,8.635-2.279,21.859,6.955,26.298c13.995,6.728,32.525,2.679,47.276,1.995c12.626-0.585,26.051-0.501,38.306-3.759
		c7.527-2.001,14.076-5.276,14.588-13.822c0.373-6.227-1.112-12.257-2.796-18.216c-3.453-12.219-8.467-25.529-9.119-38.224
		c-0.61-11.875-6.389-23.081-8.441-34.846c-0.574-3.292-0.564-6.748-1.553-9.96c-0.906-2.943-2.727-5.142-3.521-8.032
		c-1.517-5.521-0.94-15.358-7.731-17.766c-7.967-2.825-20.758,0.263-28.819,0.946c-7.53,0.637-14.957,1.04-22.422,2.337
		C271.674,207.231,264.755,211.015,256.406,214.631z"/>
	<path style="fill:#FFC94E;" d="M146.409,205.26c-5.232-3.431-24.674-5.316-28.925-0.536c-1.369,1.539-1.872,5.399-2.68,7.29
		c-1.687,3.949-3.617,7.402-4.651,11.579c-1.535,6.202-2.15,12.663-3.257,18.944c-2.582,14.653-4.838,29.416-8.471,43.847
		c-3.236,12.853-8.913,26.047-10.68,39.08c-2.005,14.786,12.811,17.668,24.679,19.342c16.95,2.389,34.099,4.455,51.209,5.091
		c8.239,0.306,26.456,1.536,31.345-6.693c3.79-6.38,3.713-17.474,3.585-24.583c-0.178-9.933-0.415-19.867-0.415-29.825
		c0-13.4-0.284-26.75-0.403-40.147c-0.096-10.872,0.401-23.241-2.449-33.833c-2.132-7.927-8.257-7.384-15.593-7.514
		c-5.946-0.105-11.612-1.568-17.525-2.005C157.997,204.987,150.547,202.593,146.409,205.26z"/>
</g>
<g>
	<path style="fill:#F2AE40;" d="M84.484,104.226c-6.393,1.548-14.056,2.162-20.743,2.46c-8.83,0.393-22.704-0.539-30.617-4.988
		c-10.442-5.871-8.323-19.256-5.698-28.95c1.544-5.703,6.828-17.865,2.081-23.132c-5.833-6.471-14.449,6.364-16.825,10.983
		c-4.833,9.391-5.1,21.323-2.445,31.382c2.208,8.364,5.446,16.297,13.577,20.435c7.867,4.004,18.52,6.6,27.287,7.21
		c9.35,0.65,19.592,0.75,28.822-0.641C87.5,117.842,87.886,111.009,84.484,104.226z"/>
	<path style="fill:#F2AE40;" d="M34.781,35.783c-6.237,4.012-17.072,2.317-20.367-4.451c-1.687-3.464-2.031-11.477,2.352-13.489
		c3.198-1.468,5.742,3.967,9.032,5.421c9.85,4.352,18.194-6.117,27.225-1.352c7.526,3.971,5.336,15.276-1.202,19.187
		c-4.656,2.785-5.042,1.933-7.751-1.231C40.47,35.663,38.571,36.176,34.781,35.783z"/>
	<path style="fill:#F2AE40;" d="M88.965,136.003c-1.396-6.733-1.271-13.923-0.905-20.776c0.43-8.055-0.402-16.052,0.907-24.046
		c0.682-4.167,0.706-10.505,6.02-10.186c6.071,0.364,4.163,8.077,4.163,12.421c0,9.585,0.014,19.17,0,28.755
		c-0.012,8.016,1.294,16.224-0.397,24.158c-0.631,2.962-2.207,9.467-6.235,8.452C86.94,153.374,86.849,141.461,88.965,136.003z"/>
	<path style="fill:#F2AE40;" d="M112.187,105.041c5.23,0.375,9.984,0.036,15.242-0.804c12.422-1.983,24.945-1.971,37.484-2.365
		c27.805-0.872,55.586,1.68,83.364,0.815c23.278-0.725,47.189-0.224,70.468,0.815c7.657,0.341,15.156,0.117,22.805-0.181
		c7.464-0.292,12.556,1.06,15.399-6.332c1.742-4.528,1.906-10.936,4.883-14.861c6.694-8.825,9.632,1.788,9.871,8.449
		c0.393,10.964,0.401,22.266-0.411,33.201c-0.692,9.318,0.986,20.551-1.457,29.578c-0.719,2.656-2.847,7.792-6.72,5.179
		c-2.293-1.548-2.612-12.395-2.729-15.308c-0.296-7.35,1.03-14.817-0.531-22.112c-0.709-3.31-1.246-5.049-4.378-5.828
		c-2.983-0.743-8.146,0.325-11.458,0.098c-4.457-0.305-8.899-0.801-13.358-1.087c-46.214-2.962-91.651,1.322-137.762,2.579
		c-18.337,0.5-36.672-0.426-54.999-0.428C135.748,116.447,103.834,116.138,112.187,105.041z"/>
	<path style="fill:#F2AE40;" d="M384.737,101.781c2.945,0.084,6.006-0.93,8.926-1.323c7.326-0.987,14.657-1.224,22.027-1.627
		c14.699-0.804,30.573,0.72,45.214,2.543c6.771,0.843,14.652,0.822,19.174,6.518c3.439,4.331,2.956,8.976,2.344,14.279
		c-0.409,3.544-7.866,23.139-12.863,17.414c-1.635-1.872,0.111-10.118-1.185-12.953c-2.833-6.196-12.439-8.113-18.401-9.125
		c-7.648-1.298-15.431-0.292-23.139-0.688c-7.834-0.402-15.55-0.587-23.38,0.238c-5.719,0.603-10.359,1.194-15.143-2.515
		C382.681,110.179,384.857,105.503,384.737,101.781z"/>
	<path style="fill:#F2AE40;" d="M434.032,141.299c-2.123,10.261-0.731,17.482,9.767,21.799c7.878,3.24,13.382-0.434,15.914,8.793
		c1.527,5.564,2.036,11.778,2.02,17.544c-0.039,14.5-1.051,29.047,2.046,43.165c3.196,14.568-0.902,32.401-1.557,47.215
		c-0.767,17.331,0.139,34.525,0.337,51.832c0.309,27.016-0.009,54.054-0.009,81.072c0,22.243-1.654,44.471-1.63,66.657
		c0.004,4.045,1.961,23.1,10.754,15.693c3.35-2.822,1.882-12.596,1.874-16.585c-0.027-13.861,0.586-27.542,1.619-41.366
		c4.969-66.491,0.832-133.28,6.04-199.769c0.954-12.174,0.152-24.605-1.956-36.668c-1.845-10.555-3.58-21.124-5.294-31.69
		c-0.623-3.837-0.304-10.301-3.649-13.027c-4.172-3.4-11.944,1.518-17.128,0.337c-4.858-1.107-8.64-5.9-8.89-10.846
		c-0.239-4.729,4.439-7.807,4.438-12.303c-0.001-3.509-2.712-6.213-5.915-7.025C434.447,124.005,435.011,135.69,434.032,141.299z"/>
	<path style="fill:#F2AE40;" d="M321.59,207.298c-9.084,5.328-15.704,16.947-19.083,26.482c-4.751,13.408-7.692,29.576-7.827,43.773
		c-0.207,21.899,10.471,37.292,19.187,56.242c1.451,3.156,4.006,10.712,0.806,13.362c-2.127,1.761-5.82,0.155-8.138,0.257
		c-4.573,0.202-8.769,1.507-13.475,1.272c-4.065-0.203-8.162-0.824-12.212-1.232c-3.622-0.365-7.372-0.82-10.996-0.825
		c-2.156-0.003-5.64,1.305-7.554,0.464c-6.481-2.849-5.63-19.083-5.857-24.736c-0.526-13.09,0.098-26.197-0.533-39.272
		c-0.598-12.393-1.881-24.664-2.444-37.076c-0.358-7.887-3.13-29.264,4.97-34.34c5.864-3.675,17.187-4.15,23.805-4.39
		C294.949,206.817,308.09,205.348,321.59,207.298z"/>
	<path style="fill:#F2AE40;" d="M163.927,207.298c-5.41,3.383-9.658,12.861-12.869,18.129
		c-8.611,14.127-13.736,30.173-15.169,46.655c-1.73,19.9,1.25,44.392,13.37,61.018c4.745,6.509,7.814,12.923-2.833,13.53
		c-9.525,0.543-18.832,1.977-28.069-0.996c-4.622-1.488-9.615-2.781-14.36-3.811c-3.673-0.797-7.635-0.344-11.146-1.54
		c-9.408-3.206-5.816-11.144-3.834-18.951c7.183-28.289,11.601-57.213,19.719-85.224c2.566-8.853,2.325-25.423,11.173-30.603
		c5.158-3.019,11.176-2.988,16.945-2.283C146.12,204.354,157.112,204.367,163.927,207.298z"/>
</g>
<g>
	<path style="fill:#FFFFFF;" d="M168.408,168.595c-3.856,1.04-6.849,2.626-9.777,5.694c-2.637,2.762-3.643,7.167-6.518,9.428
		c-2.771-3.082-3.779-6.255-8.457-6.564c-5.295-0.35-11.259,2.297-14.765,6.2c-2.963,3.298-8.468,10.161-8.157,14.962
		c0.377,5.822,10.395,6.062,15.102,6.525c10.506,1.034,20.934,2.459,31.459,3.272c6.151,0.475,14.233,2.531,20.285,1.649
		c7.563-1.103,11.837-17.095,5.997-22.426c-3.413-3.116-10.076-0.544-11.753-3.637c-0.532-0.981,0.549-3.972,0.354-5.303
		c-0.249-1.698-0.935-3.543-1.957-4.931C177.215,169.384,170.524,168.211,168.408,168.595z"/>
	<path style="fill:#FFFFFF;" d="M110.558,221.149c1.272,2.846-1.077,11.444-1.619,14.991c-0.471,3.079-1.063,8.396-3.224,10.893
		c-2.905,3.357-7.839,1.302-11.86,0.913c-2.185-0.211-4.79-0.989-6.532,0.718c-1.736,1.7-2.629,8.264-3.165,10.591
		c-1.283,5.568-4.808,16.775,3.591,17.715c2.515,0.282,5.525-1.835,7.653,0.38c1.274,1.326,1.009,6.034,0.907,7.82
		c-0.381,6.665-3.128,12.203-10.363,11.356c-7.943-0.93-16.401-6.82-21.862-12.451c-7.525-7.76-2.831-20.402,0.519-29.152
		c3.485-9.101,5.212-22.928,13.251-29.141c4.083-3.155,7.519-4.158,12.561-4.634c2.596-0.245,4.879-0.2,7.462-0.091
		c1.906,0.081,4.311-0.285,6.159,0.076C106.647,221.645,108.569,223.371,110.558,221.149z"/>
	<path style="fill:#FFFFFF;" d="M265.369,207.298c3.626,1.257,8.179,0.119,11.828-0.596c8.758-1.716,17.55-2.821,26.466-3.377
		c6.276-0.391,12.293-0.36,18.521-0.086c1.557,0.068,4.2,0.418,5.516-0.424c5.315-3.401,0.92-14.788-1.91-18.483
		c-3.783-4.94-10.956-7.808-17.044-6.111c-3.495,0.975-5.725,4.322-9.062,5.814c2.421-1.083-8.515-11.144-10.636-11.509
		c-4.292-0.739-12.566-2.103-16.107,0.935c-3.048,2.616-2.855,8.681-6.018,10.592c-3.342,2.02-7.76-1.382-10.898,2.489
		C250.789,193.002,259.76,202.305,265.369,207.298z"/>
	<path style="fill:#FFFFFF;" d="M341.145,226.038c-0.607,6.121,0.125,15.104,2.15,20.878c1.63,4.649,2.617,3.214,7.017,1.325
		c4.141-1.778,5.194-2.313,8.737-0.702c5.624,2.558,8.503,8.923,9.403,14.766c1.221,7.931,1.416,12.094-6.986,15.38
		c-2.396,0.937-7.696-0.137-8.945,2.12c-0.872,1.576,1.454,8.693,2.017,10.347c2.521,7.405,15.708,2.583,21.649,0.867
		c19.272-5.568,15.486-29.785,9.109-44.267c-3.004-6.823-6.791-17.301-12.385-22.331c-3.532-3.176-7.987-2.74-12.715-2.863
		c-3.852-0.099-7.909-0.288-11.68,0.637C345.475,222.941,342.892,224.937,341.145,226.038z"/>
</g>
<g>
	<path style="fill:#EBEBEC;" d="M106.891,236.223c-5.389-2.573-13.562-3.354-18.333,0.389c-3.226,2.531-12.086,17.355-3.564,15.099
		c6.358-1.683,8.292-9.239,15.696-4.916c1.269,0.741,3.18,3.461,4.898,2.818C107.301,248.971,109.093,239.789,106.891,236.223z"/>
	<path style="fill:#EBEBEC;" d="M73.702,244.135c-0.224,13.873-6.817,37.393,12.73,40.59c3.103,0.508,9.229,0.684,9.477,5.071
		c0.294,5.187-6.13,6.181-9.756,5.621c-7.326-1.131-15.121-5.363-18.7-11.979c-3.028-5.598-4.623-13.749-4.17-20.119
		c0.453-6.369,3.306-13.817,6.543-19.29C72.267,239.903,73.782,239.193,73.702,244.135z"/>
	<path style="fill:#EBEBEC;" d="M121.965,202.409c-3.181-9.502,7.374-25.527,18.453-22.433c9.322,2.603,0.109,18.052,13.019,14.999
		c4.093-0.968,8.899-2.914,12.828-0.722c1.715,0.956,2.349,2.985,4.008,3.897c1.988,1.092,5.302,0.72,7.539,0.602
		c4.347-0.229,11.372-3.317,14.153,1.62c2.568,4.558-1.232,7.165-5.182,7.71c-9.986,1.377-20.616-0.795-30.635-0.784
		C144.203,207.311,135.808,205.254,121.965,202.409z"/>
	<path style="fill:#EBEBEC;" d="M261.295,206.483c-3.287-5.32-7.257-10.584-4.48-17.119c2.612-6.147,6.552-6.465,12.138-3.701
		c2.366-5.041,1.919-13.614,10.785-11.69c10.603,2.301-1.642,17.245,8.823,20.632c5.027,1.626,12.594-1.048,17.824-1.163
		c5.122-0.113,8.962,0.67,13.777,2.295c2.64,0.891,6.519,1.569,5.498,5.459c-0.797,3.037-4.787,2.748-7.751,3.057
		c-10.07,1.052-20.217,0.711-30.303,1.614c-5.336,0.478-10.641,1.054-15.909,2.041C268.351,208.536,264.239,210.068,261.295,206.483
		z"/>
	<path style="fill:#EBEBEC;" d="M342.775,237.445c4.879-5.818,25.744-5.578,22.406,5.907c-1.109,3.817-2.781,2.646-6.503,2.649
		c-4.499,0.005-8.66,1.199-12.561,3.195C343.676,244.673,341.575,240.42,342.775,237.445z"/>
	<path style="fill:#EBEBEC;" d="M354.589,287.555c7.276-0.238,21.05-4.48,23.141-12.223c1.504-5.569-5.149-20.634,1.065-24.054
		c7.754-4.266,9.975,10.223,10.015,14.528c0.075,8.076,1.063,16.64-6.773,21.749C379.233,289.384,356.183,299.653,354.589,287.555z"
		/>
</g>
<path d="M508.903,467.158c-0.85-15.288-2.444-30.437-2.559-45.769c-0.135-18.05,0.006-36.072-0.569-54.118
	c-0.288-9.055-0.455-18.133-1.017-27.175c-0.091-1.458-0.176-2.944-0.265-4.439c0.13-22.697,0.57-45.432,1.512-68.084
	c0.592-14.254,0.823-28.295,0.298-42.559c-0.519-14.085,0.092-28.079,0.437-42.158c0.353-14.399,0.503-28.818-0.187-43.209
	c-0.537-11.203-1.819-22.299-2.142-33.508c-0.221-7.682-0.709-17.232-6.861-22.759c-7.105-6.384-19.142-4.857-27.902-4.73
	c-15.883,0.229-31.756,0.656-47.641,0.821c-8.182,0.085-16.364,0.158-24.543,0.393c-4.356,0.125-9-0.54-13.377-0.034
	c-3.675-5.87-11.375-9.813-18.05-6.788c-4.551,2.062-7.142,6.235-8.609,10.927c-7.181-1.424-15.296-0.131-22.481-0.264
	c-10.508-0.195-20.998-0.578-31.501-0.958c-21.521-0.779-43.051-1.354-64.586-1.577c-21.197-0.22-42.394,0.023-63.589,0.338
	c-21.012,0.312-42.179,0.037-63.14,1.698c-0.293-0.76-0.608-1.506-0.973-2.217c-3.337-6.491-11.606-11.166-18.712-7.947
	c-5.495,2.49-8.14,8.052-9.386,13.898c-3.684-0.372-7.376,0.535-11.115,1.111c-6.09,0.94-12.653,1.955-18.756,0.62
	c-3.529-0.772-8.329-2.217-10.587-5.274c-2.89-3.912-0.555-8.532,2.42-11.547c6.078-6.159,15.611-6.922,22.503-12.005
	c7.584-5.592,12.049-15.094,11.485-24.538C77.962,17.826,62.124,4.754,46.022,1.076C31.698-2.195,15.458,1.704,9.944,16.747
	c-3.464,9.451-0.935,20.192,7.877,25.697c0.772,0.482,1.56,0.889,2.357,1.258c-0.073,0.06-0.15,0.12-0.222,0.18
	c-5.94,4.894-10.51,11.465-13.472,18.533c-5.057,12.067-5.454,27-0.69,39.253c5.255,13.513,16.843,18.835,30.52,20.966
	c7.453,1.161,15.006,1.522,22.526,1.998c7.262,0.459,16.015,1.519,23.17-0.855c0,3.021-0.023,6.045-0.09,9.075
	c-5.578-0.999-11.205-0.551-16.88,0.094c-5.845,0.665-12.225,0.607-17.807,2.629c-5.902,2.139-8.937,6.542-9.805,12.599
	c-1.015,7.081-1.192,14.461-1.644,21.598c-2.301,36.376-1.611,73.231-0.781,109.656c0.412,18.087,1.362,36.158,1.744,54.246
	c0.191,9.027,0.243,18.06,0.031,27.087c-0.173,7.337-1.186,14.669-1.233,21.991c-0.041,6.399,1.358,12.871,5.909,17.617
	c4.382,4.57,9.664,8.781,14.383,13.047c4.972,4.495,10.51,8.818,17.083,10.629c7.445,2.05,16,1.626,23.628,1.266
	c17.215-0.813,34.248-3.075,51.507-3.471c18.005-0.412,36.01-0.05,54.003,0.647c18.285,0.708,36.546,0.196,54.834-0.076
	c18.295-0.272,36.578,0.255,54.871,0.441c16.576,0.168,33.108-0.468,49.679-0.03c14.296,0.378,28.001-0.592,39.551-9.814
	c5.211-4.161,11.716-9.156,15.17-14.933c3.589-6.001,2.805-14.291,2.906-20.994c0.271-17.909-0.477-35.805-0.011-53.716
	c0.961-36.961-1.802-73.743-2.91-110.677c-0.539-17.938-1.128-35.971-0.703-53.916c0.262-11.075,3.659-26.065-10.941-28.878
	c-5.13-0.988-10.572-0.805-15.88-0.667c0.066-2.425,0.098-4.853,0.114-7.281c2.635,0.008,5.372-0.573,8.137-0.492
	c5.603,0.165,11.172,0.675,16.786,0.728c6.557,0.062,13.121,0.179,19.681,0.345c-0.057,0.075-0.116,0.151-0.17,0.225
	c-4.395,5.984-6.633,13.263-6.931,20.658c-0.336,8.342,2.765,16.392,9.198,21.839c2.705,2.291,5.738,4.091,9.143,5.119
	c2.679,0.81,7.233,0.544,9.51,2.279c2.649,2.017,2.036,7.605,1.907,10.542c-0.182,4.15-0.746,8.271-0.927,12.422
	c-0.473,10.848-1.1,21.693-1.527,32.542c-0.85,21.556,1.228,42.962,1.225,64.487c-0.003,20.079-0.449,40.02-0.006,60.109
	c0.457,20.698,0.727,41.401,0.812,62.104c0.043,10.502-1.217,21.071-1.217,31.615c-0.475,13.587-1.777,27.754-0.119,41.294
	c1.319,10.767,6.945,18.801,17.493,22.211c11.387,3.681,25.834,3.045,33.177-7.829C511.174,492.874,509.486,477.639,508.903,467.158
	z M364.84,138.821c0.49-9.779,0.835-19.571,1.151-29.358c0.192-5.952-0.269-11.955-0.471-17.921c0.666-5.32,2.31-10.106,6.432-9.524
	c7.538,1.064,6.466,17.928,6.786,22.95c0.598,9.411,0.467,18.659-0.384,28.044c-0.512,5.646,2.204,15.903-5.147,18.315
	c-2.602,0.854-6.328,1.241-7.789-1.407C363.845,147.069,364.685,141.928,364.84,138.821z M174.213,92.856
	c20.84-0.221,41.68-0.359,62.521-0.146c20.836,0.212,41.667,0.757,62.49,1.503c10.512,0.376,21.02,0.9,31.539,1.073
	c4.469,0.073,8.966,0.337,13.432,0.206c3.789-0.112,7.729-0.765,11.463,0.054c-0.009,0.262-0.022,0.529-0.029,0.785
	c-0.116,4.643-0.121,9.264-0.099,13.879c-18.249-2.053-36.864-0.402-55.18-0.636c-21.061-0.269-42.107-1.172-63.161-1.732
	c-20.987-0.558-41.83-0.379-62.796,0.709c-10.436,0.542-20.893,0.576-31.321,1.21c-9.166,0.557-18.876,0.665-28.032,2.305
	c-0.037-1.331-0.065-2.664-0.123-3.989c-0.205-4.729-0.111-10.245-0.693-15.543C134.15,93.906,154.264,93.068,174.213,92.856z
	 M355.594,121.682c0.006,2.072,0.087,4.168-0.012,6.238c-0.121,2.528,0.089,2.402-2.26,2.865c-3.488,0.687-7.634-0.735-11.169-0.8
	c-4.989-0.093-9.974,0.206-14.963,0.216c-10.603,0.021-21.205,0.075-31.807,0.162c-20.887,0.172-41.773,0.475-62.656,0.916
	c-20.862,0.44-41.72,1.124-62.571,1.917c-10.425,0.396-20.855,1.034-31.29,0.914c-7.884-0.091-16.033-1.01-23.978-0.639
	c0.157-4.051,0.249-8.122,0.267-12.188c8.506,0.984,17.343-0.152,25.817-0.526c10.445-0.461,20.9-0.472,31.346-0.981
	c20.965-1.022,41.78-1.33,62.767-0.758c21.053,0.574,42.095,1.524,63.154,1.871C317.152,121.202,336.798,119.075,355.594,121.682z
	 M91.248,138.821c0.491-9.779,0.835-19.571,1.151-29.358c0.192-5.952-0.269-11.955-0.471-17.921c0.666-5.32,2.31-10.106,6.432-9.524
	c7.535,1.064,6.467,17.918,6.785,22.945c0.557,8.784,0.321,17.585,0.296,26.379c-0.017,5.896,1.863,17.462-5.826,19.985
	c-2.602,0.854-6.328,1.241-7.789-1.407C90.252,147.069,91.092,141.928,91.248,138.821z M81.955,112.883
	c-0.057-0.007-0.111-0.025-0.168-0.03c-6.513-0.57-13.412,0.74-20.054,0.42c-6.252-0.302-12.538-0.51-18.774-1.049
	c-11.277-0.975-22.895-3.158-27.541-14.674c-4.044-10.023-3.814-22.514,0.33-32.422c2.498-5.973,6.424-11.091,11.282-15.334
	c1.773-1.549,3.814-2.938,5.759-4.425c6.066-0.959,11.881-4.214,16.237-8.866c3.05-3.258,0.085-9.458-4.592-7.888
	c-7.486,2.512-18.347,12.552-24.632,1.782c-3.388-5.805,0.053-13.88,5.248-17.376c9.77-6.576,25.186-1.573,33.515,5.206
	c6.767,5.508,11.544,14.39,8.825,23.151c-2.496,8.042-9.149,11.12-16.529,13.738c-7.575,2.687-14.757,6.792-18.925,13.961
	c-4.012,6.899-3.752,15.644,1.206,21.978c5.465,6.983,15.226,9.786,23.758,10.094c5.764,0.208,11.514-0.822,17.083-2.208
	c2.745-0.683,5.495-1.385,8.052-2.474C81.899,101.961,81.919,107.425,81.955,112.883z M388.503,406.204
	c-5.402,3.026-11.769,3.639-17.848,3.838c-6.603,0.216-13.2-0.207-19.799-0.348c-7.404-0.158-14.808,0.322-22.212,0.41
	c-16.886,0.202-33.769-0.337-50.655-0.399c-16.199-0.059-32.381,0.576-48.575,0.837c-33.279,0.538-66.513-1.916-99.792,0.088
	c-14.88,0.896-29.778,3.672-44.722,2.802c-6.86-0.4-11.997-1.898-17.338-6.303c-4.696-3.872-8.688-8.518-13.298-12.485
	c-0.255-0.219-0.497-0.434-0.733-0.647c9.134,0.85,18.756-0.147,27.654-0.291c12.034-0.194,23.987,0.575,36.005,1.021
	c24.677,0.914,49.358,1.424,74.049,1.765c49.248,0.681,98.29-1.885,147.498-2.976c13.581-0.301,27.2-0.375,40.782-0.072
	c5.981,0.133,11.878,0.579,17.833,1.063c1.931,0.157,3.791,0.256,5.611,0.213C398.462,398.853,393.861,403.203,388.503,406.204z
	 M395.916,141.267c1.946,0.01,4.516-0.336,6.386,0.349c3.825,1.4,1.582,7.837,1.403,11.217c-0.863,16.326-0.194,32.844,0.194,49.178
	c0.789,33.21,3.95,66.51,3.711,99.719c-0.119,16.501-0.839,32.963-0.61,49.47c0.105,7.594,0.253,15.188,0.197,22.783
	c-0.022,3.022-0.08,6.047-0.181,9.069c-8.798,0.459-17.713-1.018-26.494-1.232c-11.839-0.289-23.709-0.225-35.549-0.046
	c-24.033,0.364-48.004,2.005-72.009,3.067c-49.071,2.172-98.276,3.415-147.326,0.353c-13.4-0.837-26.779-1.887-40.215-1.796
	c-11.817,0.08-25.044-0.478-36.855,2.018c-0.125-1.018-0.169-2.134-0.136-3.403c0.197-7.443,0.917-14.828,0.966-22.29
	c0.106-15.996-0.608-31.984-1.384-47.957c-1.792-36.873-2.476-73.769-2.001-110.688c0.125-9.748,0.404-19.496,0.973-29.23
	c0.422-7.219,0.386-14.887,1.546-22.021c0.9-5.535,8.808-5.007,13.305-5.753c6.466-1.072,13.16-2.734,19.77-2.434
	c-0.218,6.489,0.193,14.318,6.26,17.881c5.74,3.37,14.288,2.324,19.573-1.462c3.969-2.843,5.693-7.53,6.514-12.354
	c8.219,0.767,16.748,0.488,24.911,0.574c10.435,0.109,20.866-0.539,31.29-0.947c20.853-0.815,41.711-1.444,62.571-2.042
	c20.882-0.599,41.768-1.06,62.656-1.39c10.602-0.168,21.204-0.302,31.807-0.403c8.962-0.085,19.266,0.889,28.078-1.534
	c-0.316,6.755-0.409,15.683,6.193,19.559c5.74,3.37,14.287,2.324,19.573-1.462c5.19-3.718,6.549-10.586,7.053-16.795
	C390.697,141.257,393.307,141.253,395.916,141.267z M496.875,482.763c-0.153,3.796,0.137,9.565-2.292,12.83
	c-3.757,5.047-10.888,4.638-16.285,3.388c-4.189-0.971-8.2-2.344-10.275-6.387c-1.943-3.785-1.913-8.54-1.985-12.681
	c-0.484-27.866,1.896-55.711,1.861-83.577c-0.019-14.897-0.432-29.789-0.835-44.678c-0.377-13.939-1.598-28.32-1.125-42.178
	c0.67-20.363-0.853-40.566-1.096-60.918c-0.23-19.257,0.403-38.922,2.083-58.108c0.635-7.257,1.712-15.515-1.893-22.23
	c-3.431-6.391-10.048-6.668-16.312-8.111c-8.908-2.054-12.599-10.781-11.527-19.218c0.508-3.997,1.76-7.973,3.887-11.397
	c1.148-1.848,2.674-4.973,4.509-6.565c4.812,0.317,9.952,1.168,13.313,4.166c2.192,1.955,3.047,5.068,2.284,7.899
	c-1.179,4.375-5.495,4.018-9.006,5.564c-3.512,1.546-2.857,6.725,0,8.454c10.286,6.224,20.668-5.936,20.81-15.665
	c0.151-10.339-7.292-17.402-16.714-20.067c-8.837-2.499-18.194-1.911-27.267-2.215c-7.427-0.249-14.86-0.111-22.286-0.359
	c-3.928-0.131-7.899-0.746-11.829-0.549c-3.088,0.155-6.193,2.353-6.385-2.088c-0.249-5.763-0.057-12.694-1.184-18.977
	c3.334,0.509,6.67,1.081,10.138,1.116c6.784,0.068,13.569,0.065,20.353,0.147c13.369,0.161,26.725,0.18,40.093-0.003
	c5.441-0.074,10.881-0.095,16.321-0.192c4.243-0.075,10.59-0.829,14.518,1.24c5.417,2.853,4.029,14.599,4.105,19.643
	c0.169,11.265,1.866,22.499,2.254,33.779c0.46,13.353,0.257,26.725-0.1,40.077c-0.358,13.398-0.894,26.709-0.408,40.112
	c0.492,13.557,0.367,26.909-0.232,40.457c-0.682,15.437-0.734,30.86-0.984,46.304c-0.143,8.842-1.296,17.822-0.958,26.627
	c0.357,9.315,0.765,18.626,1.032,27.944c0.728,25.422-0.351,51.021,1.343,76.394C495.692,456.063,497.414,469.387,496.875,482.763z"
	/>
<path d="M200.688,221.034c-0.145-2.985-0.153-6.214-1.366-9c-1.143-2.626-3.095-4.186-5.402-5.185
	c4.764-3.725,7.28-10.915,5.961-16.593c-1.588-6.836-7.255-9.664-13.299-9.184c-0.552-7.956-7.244-14.648-15.695-15.408
	c-8.187-0.737-15.721,4.319-19.469,11.374c-6.4-5.545-14.921-7.033-22.365-0.384c-5.134,4.586-12.246,14.908-9.647,22.281
	c-3.844,0.706-6.484,2.936-8.123,7.716c-1.425,4.156-2.087,8.519-2.71,12.881c-5.817-2.37-13.727-2.478-19.482-2.289
	c-5.227,0.172-10.202,1.814-14.024,5.485c-7.54,7.244-10.493,20.051-13.884,29.639c-3.452,9.759-6.908,21.99-1.308,31.643
	c3.072,5.295,8.434,8.49,14.011,10.635c4.603,1.77,10.965,3.675,16.503,3.366c-2.477,8.958-5.493,18.007-7.025,27.168
	c-1.141,6.828-0.568,13.272,5.608,17.362c6.01,3.98,14.511,5.707,21.46,7.153c20.115,4.186,40.532,1.385,60.839,2.642
	c7.41,0.458,18.123,2.629,24.014-3.293c4.269-4.292,4.449-10.924,4.583-16.593c0.489-20.753,1.727-41.432,1.782-62.211
	c0.029-11.138,0.253-22.308-0.2-33.438C201.234,231.547,200.943,226.291,200.688,221.034z M132.085,183.711
	c6.009-6.72,13.15-4.885,17.532,2.387c1.694,2.812,5.873,2.163,6.831-0.893c1.729-5.516,5.254-11.001,11.462-11.895
	c6.699-0.965,12.912,4.734,10.962,11.499c-0.703,2.439,1.845,5.591,4.497,4.497c3.919-1.615,8.804-2.161,9.37,3.252
	c0.581,5.555-3.994,7.434-7.005,10.97c-0.326,0.383-0.552,0.848-0.686,1.346c-0.098-0.013-0.197-0.027-0.295-0.04
	c-10.546-1.455-21.151-2.35-31.759-3.2c-9.32-0.747-18.593-2.107-27.897-2.842C125.198,193.31,128.682,187.517,132.085,183.711z
	 M78.644,287.798c-5.13-1.561-10.717-4.187-12.859-9.464c-3.291-8.108,0.67-18.183,3.504-25.843
	c2.722-7.357,4.888-16.902,10.01-22.968c6.884-8.152,18.784-3.314,28.316-3.746c-0.054,0.308-0.101,0.617-0.159,0.924
	c-0.484,1.87-0.936,3.746-1.39,5.607c-0.988,4.057-1.875,8.135-2.743,12.217c-1.999-0.31-4.074-0.466-5.844-0.84
	c-3.084-0.652-6.137-1.104-9.167,0.039c-6.09,2.298-7.88,9.825-9.226,15.468c-1.326,5.556-2.039,12.497,1.059,17.612
	c1.908,3.15,4.617,4.446,7.584,4.684c2.092,0.748,4.484,1.116,6.775,1.145c-0.649,2.483-1.298,4.965-1.964,7.443
	C88.161,288.772,83.01,289.126,78.644,287.798z M101.555,252.882c-0.823,3.918-1.654,7.834-2.558,11.736
	c-0.843,3.637-1.734,7.261-2.648,10.88c-0.591-0.001-1.186,0.015-1.781,0.033c-3.025-1.113-6.7-1.031-7.951-3.962
	c-1.581-3.705-0.087-8.998,0.91-12.673c0.57-2.103,1.004-5.616,2.729-7.105c2.025-1.748,5.181-0.322,7.414,0.242
	C98.876,252.338,100.213,252.678,101.555,252.882z M193.191,262.956c-0.008,19.057-0.101,38.129-1.093,57.165
	c-0.318,6.097,0.11,12.811-0.967,18.835c-0.471,2.636-1.294,4.759-4.082,5.437c-4.566,1.11-10.118,0.179-14.737-0.071
	c-17.92-0.973-35.929,1.358-53.798-0.932c-6.918-0.887-14.17-2.472-20.732-4.925c-2.921-1.092-6.35-2.508-7.13-5.821
	c-0.858-3.645,0.598-8.126,1.49-11.63c5.047-19.841,10.806-39.501,15.094-59.53c1.299-6.07,2.432-12.173,3.594-18.27
	c0.803-2.464,1.559-4.945,2.221-7.458c1.54-5.847,2.604-11.733,3.833-17.641c0.536-2.573,1.104-5.183,1.967-7.671
	c0.34-0.981,0.638-2.319,1.346-3.118c0.073-0.082,0.123-0.143,0.162-0.194c0.602-0.119,1.331-0.005,1.883-0.008
	c5.805-0.028,11.688,1.403,17.47,1.912c9.545,0.839,19.106,1.49,28.645,2.398c4.571,0.435,9.139,0.92,13.691,1.526
	c2.049,0.273,7.428,0.21,9.024,1.826c1.14,1.154,0.982,3.314,1.075,4.857c0.28,4.663,0.462,9.338,0.685,14.004
	C193.298,243.413,193.195,253.183,193.191,262.956z"/>
<path d="M361.694,217.245c-5.755-0.189-13.665-0.082-19.482,2.289c-0.624-4.363-1.285-8.726-2.71-12.881
	c-1.639-4.78-4.28-7.01-8.124-7.716c2.599-7.373-4.513-17.695-9.647-22.281c-7.444-6.649-15.965-5.161-22.365,0.384
	c-3.748-7.056-11.281-12.111-19.469-11.374c-8.451,0.761-15.143,7.452-15.695,15.408c-6.045-0.48-11.711,2.347-13.299,9.184
	c-1.319,5.678,1.197,12.868,5.961,16.593c-2.307,0.999-4.259,2.559-5.402,5.185c-1.212,2.786-1.221,6.015-1.366,9
	c-0.255,5.256-0.546,10.512-0.76,15.771c-0.453,11.13-0.23,22.3-0.2,33.438c0.054,20.779,1.292,41.458,1.782,62.211
	c0.134,5.67,0.313,12.301,4.583,16.593c5.891,5.922,16.604,3.751,24.014,3.293c20.307-1.257,40.724,1.544,60.838-2.642
	c6.949-1.446,15.451-3.173,21.46-7.153c6.176-4.09,6.749-10.535,5.608-17.362c-1.531-9.16-4.547-18.21-7.025-27.168
	c5.538,0.308,11.901-1.596,16.503-3.366c5.577-2.145,10.939-5.339,14.011-10.635c5.6-9.653,2.143-21.885-1.308-31.643
	c-3.392-9.588-6.344-22.395-13.885-29.639C371.896,219.059,366.921,217.417,361.694,217.245z M258.046,192.559
	c0.566-5.414,5.452-4.867,9.37-3.252c2.652,1.093,5.201-2.058,4.497-4.497c-1.95-6.765,4.262-12.465,10.962-11.499
	c6.209,0.894,9.733,6.379,11.462,11.895c0.958,3.056,5.137,3.705,6.831,0.893c4.382-7.272,11.523-9.107,17.531-2.387
	c3.403,3.806,6.887,9.599,6.988,15.081c-9.304,0.735-18.577,2.095-27.897,2.842c-10.608,0.85-21.213,1.745-31.759,3.2
	c-0.097,0.013-0.197,0.027-0.295,0.04c-0.134-0.497-0.36-0.963-0.686-1.346C262.04,199.994,257.465,198.115,258.046,192.559z
	 M360.132,332.643c-0.78,3.313-4.209,4.729-7.13,5.821c-6.562,2.453-13.815,4.039-20.732,4.925
	c-17.869,2.29-35.879-0.041-53.798,0.932c-4.619,0.25-10.171,1.181-14.737,0.071c-2.788-0.678-3.61-2.801-4.082-5.437
	c-1.077-6.024-0.65-12.738-0.967-18.835c-0.992-19.036-1.085-38.108-1.093-57.165c-0.004-9.773-0.107-19.543,0.36-29.307
	c0.223-4.666,0.405-9.342,0.685-14.004c0.093-1.543-0.065-3.703,1.075-4.857c1.596-1.616,6.974-1.553,9.024-1.826
	c4.552-0.606,9.12-1.091,13.691-1.526c9.539-0.908,19.1-1.559,28.645-2.398c5.782-0.508,11.665-1.94,17.47-1.912
	c0.552,0.003,1.281-0.112,1.883,0.008c0.04,0.051,0.09,0.112,0.162,0.194c0.708,0.799,1.006,2.137,1.346,3.118
	c0.863,2.488,1.431,5.097,1.967,7.671c1.229,5.908,2.293,11.794,3.833,17.641c0.662,2.513,1.418,4.994,2.221,7.458
	c1.162,6.097,2.295,12.199,3.594,18.27c4.287,20.029,10.047,39.689,15.094,59.53C359.534,324.517,360.99,328.998,360.132,332.643z
	 M349.23,252.882c1.342-0.204,2.679-0.544,3.884-0.849c2.233-0.565,5.39-1.99,7.414-0.242c1.725,1.49,2.159,5.003,2.729,7.105
	c0.997,3.675,2.491,8.968,0.91,12.673c-1.25,2.93-4.926,2.849-7.951,3.962c-0.595-0.018-1.189-0.033-1.781-0.033
	c-0.914-3.619-1.806-7.244-2.648-10.88C350.884,260.716,350.052,256.8,349.23,252.882z M385,278.334
	c-2.142,5.277-7.729,7.904-12.859,9.464c-4.366,1.328-9.517,0.974-13.897,2.278c-0.666-2.478-1.315-4.961-1.964-7.443
	c2.291-0.029,4.683-0.397,6.775-1.145c2.967-0.238,5.676-1.534,7.584-4.684c3.098-5.115,2.385-12.055,1.059-17.612
	c-1.347-5.643-3.136-13.17-9.226-15.468c-3.03-1.143-6.083-0.691-9.167-0.039c-1.771,0.374-3.845,0.531-5.844,0.84
	c-0.868-4.082-1.755-8.16-2.743-12.217c-0.454-1.861-0.905-3.737-1.39-5.607c-0.057-0.307-0.105-0.616-0.158-0.924
	c9.532,0.432,21.432-4.406,28.316,3.746c5.122,6.066,7.288,15.611,10.01,22.968C384.33,260.151,388.291,270.226,385,278.334z"/>
<g>
</g>
<g>
</g>
<g>
</g>
<g>
</g>
<g>
</g>
<g>
</g>
<g>
</g>
<g>
</g>
<g>
</g>
<g>
</g>
<g>
</g>
<g>
</g>
<g>
</g>
<g>
</g>
<g>
</g>
</svg>
