<?xml version="1.0" encoding="iso-8859-1"?>
<!-- Generator: Adobe Illustrator 19.0.0, SVG Export Plug-In . SVG Version: 6.00 Build 0)  -->
<svg version="1.1" id="Capa_1" xmlns="http://www.w3.org/2000/svg" xmlns:xlink="http://www.w3.org/1999/xlink" x="0px" y="0px"
	 viewBox="0 0 480.002 480.002" style="enable-background:new 0 0 480.002 480.002;" xml:space="preserve">
<polygon style="fill:#69D6C7;" points="8.002,176.001 16.002,176.001 96.002,176.001 104.002,176.001 56.002,128.001 "/>
<polygon style="fill:#F7CC40;" points="16.002,256.001 64.002,256.001 96.002,256.001 96.002,176.001 16.002,176.001 "/>
<polygon style="fill:#ED903B;" points="176.002,256.001 176.002,304.001 304.002,304.001 304.002,256.001 304.002,152.001 
	240.002,152.001 176.002,152.001 "/>
<polygon style="fill:#69D6C7;" points="136.002,224.001 176.002,256.001 176.002,152.001 "/>
<path style="fill:#FCF1ED;" d="M24.002,288.001c0,17.672,14.328,32,32,32h80l36.992-66.408l-28.336-22.672l-31.72,57.08H24.002z"/>
<polygon style="fill:#69D6C7;" points="344.002,224.001 304.002,152.001 304.002,256.001 "/>
<g>
	<path style="fill:#FCF1ED;" d="M344.002,320.001h80c17.672,0,32-14.328,32-32h-88.936l-31.712-57.08l-28.336,22.672
		L344.002,320.001z"/>
	<path style="fill:#FCF1ED;" d="M312.002,80.001c0,1.792-0.136,3.552-0.272,5.312c-4.928,1.712-10.208,2.688-15.728,2.688
		c-17.224,0-32.288-9.104-40.752-22.728c-13.52,9.12-31.472,14.728-51.248,14.728c-12.896,0-25.032-2.384-35.672-6.56
		c-0.192,2.16-0.328,4.344-0.328,6.56c0,39.768,32.232,72,72,72S312.002,119.769,312.002,80.001z"/>
</g>
<polygon style="fill:#69D6C7;" points="176.002,472.001 240.002,472.001 304.002,472.001 304.002,304.001 176.002,304.001 "/>
<path style="fill:#F7CC40;" d="M424.002,64.001c-26.512,0-48,21.488-48,48c0,20.888,13.368,38.616,32,45.208v98.792l32-24l-8-16
	l8-16l-8-16l5.176-25.872c20.096-5.736,34.824-24.192,34.824-46.128C472.002,85.489,450.514,64.001,424.002,64.001z"/>
<path style="fill:#ED903B;" d="M255.25,65.273c8.464,13.624,23.528,22.728,40.752,22.728c5.52,0,10.8-0.976,15.728-2.688
	c0.136-1.76,0.272-3.52,0.272-5.312c0-39.768-32.232-72-72-72c-2.416,0-4.808,0.128-7.16,0.36c-0.808,0.08-1.6,0.24-2.4,0.344
	c-1.528,0.2-3.064,0.4-4.56,0.696c-0.944,0.192-1.864,0.456-2.792,0.68c-1.312,0.32-2.632,0.616-3.92,1.008
	c-0.992,0.304-1.952,0.664-2.928,1.008c-1.176,0.416-2.36,0.816-3.512,1.288c-1,0.408-1.976,0.88-2.96,1.336
	c-1.064,0.496-2.136,0.984-3.168,1.528c-1,0.528-1.968,1.096-2.944,1.672c-0.952,0.56-1.912,1.12-2.84,1.72
	c-0.984,0.64-1.936,1.32-2.888,2.008c-0.856,0.616-1.704,1.24-2.528,1.888c-0.952,0.752-1.88,1.544-2.792,2.344
	c-0.752,0.656-1.488,1.328-2.216,2.016c-0.912,0.872-1.808,1.768-2.672,2.688c-0.648,0.68-1.272,1.376-1.888,2.08
	c-0.872,0.992-1.712,2.008-2.528,3.048c-0.536,0.688-1.064,1.392-1.576,2.104c-0.808,1.12-1.6,2.248-2.344,3.416
	c-0.44,0.68-0.848,1.384-1.264,2.08c-0.736,1.24-1.456,2.496-2.128,3.792c-0.328,0.656-0.632,1.336-0.952,2.008
	c-0.656,1.376-1.296,2.76-1.864,4.176c-0.248,0.616-0.456,1.248-0.688,1.872c-0.56,1.52-1.096,3.04-1.56,4.6
	c-0.16,0.536-0.272,1.088-0.416,1.624c-0.448,1.68-0.88,3.368-1.208,5.096c-0.072,0.392-0.112,0.792-0.184,1.184
	c-0.328,1.904-0.624,3.816-0.8,5.768l0,0c10.648,4.184,22.784,6.568,35.68,6.568C223.778,80.001,241.73,74.393,255.25,65.273z"/>
<g>
	<path style="fill:#212329;" d="M8.002,256.001c0,4.424,3.584,8,8,8h80c4.416,0,8-3.576,8-8v-72c3.232,0,6.152-1.944,7.392-4.936
		c1.24-2.992,0.552-6.432-1.736-8.72l-48-48c-3.128-3.128-8.184-3.128-11.312,0l-48,48c-2.288,2.288-2.976,5.728-1.736,8.72
		s4.16,4.936,7.392,4.936V256.001z M56.002,139.313l28.688,28.688H27.314L56.002,139.313z M88.002,184.001v64h-16v-16h-16v16h-32
		v-64H88.002z"/>
	<path style="fill:#212329;" d="M24.002,280.001c-4.416,0-8,3.576-8,8c0,22.056,17.944,40,40,40h80c2.904,0,5.576-1.568,6.992-4.112
		l25.008-44.896v25.008v168c0,4.424,3.584,8,8,8h128c4.416,0,8-3.576,8-8v-168v-25.008l25.008,44.896
		c1.416,2.544,4.088,4.112,6.992,4.112h80c22.056,0,40-17.944,40-40c0-4.424-3.584-8-8-8H371.77l-26.144-47.048l3.376-2.696
		c3.048-2.44,3.896-6.728,2-10.136l-40-72c-0.24-0.432-0.592-0.752-0.896-1.12c-0.208-0.256-0.376-0.544-0.616-0.768
		c-0.696-0.656-1.472-1.208-2.344-1.576c-0.096-0.04-0.2-0.04-0.296-0.072c-0.816-0.312-1.68-0.488-2.56-0.52
		c-0.104-0.008-0.184-0.064-0.288-0.064h-16.208c18.096-13.552,30.256-34.528,31.92-58.408c0-0.032,0.016-0.064,0.024-0.096
		c0.136-1.824,0.264-3.648,0.264-5.496c0-44.112-35.888-80-80-80c-2.72,0-5.4,0.144-8.048,0.408c-0.368,0.04-0.72,0.112-1.08,0.152
		c-2.336,0.264-4.648,0.6-6.92,1.056c-0.104,0.024-0.2,0.048-0.304,0.072c-25.936,5.312-47.232,23.04-57.312,47.112
		c-0.016,0.04-0.04,0.088-0.056,0.128c-0.816,1.952-1.536,3.952-2.192,5.984c-0.2,0.608-0.424,1.208-0.616,1.824
		c-0.416,1.4-0.752,2.832-1.096,4.264c-0.304,1.232-0.624,2.44-0.872,3.696c-0.152,0.792-0.24,1.6-0.368,2.4
		c-0.304,1.84-0.592,3.68-0.768,5.56c0,0.024-0.008,0.04-0.008,0.064c0,0.016,0.008,0.032,0,0.04c-0.208,2.392-0.36,4.8-0.36,7.24
		c0,26.184,12.704,49.4,32.208,64h-16.208c-0.104,0-0.192,0.056-0.296,0.056c-0.864,0.032-1.696,0.208-2.488,0.504
		c-0.12,0.04-0.248,0.04-0.368,0.088c-0.864,0.368-1.64,0.912-2.328,1.568c-0.248,0.232-0.408,0.52-0.624,0.784
		c-0.304,0.368-0.656,0.688-0.888,1.112l-40,72c-1.896,3.408-1.056,7.696,2,10.136l3.376,2.696l-26.152,47.056H24.002z
		 M296.002,464.001h-48v-112h-16v112h-48v-152h112V464.001z M332.954,243.089l27.12,48.8c1.408,2.536,4.088,4.112,6.992,4.112
		h79.568c-3.304,9.312-12.2,16-22.632,16h-75.304l-31.408-56.384l12.528-10.024L332.954,243.089z M330.354,224.673L330.354,224.673
		l-7.496,5.992l-10.856,8.688v-56.48l21.72,39.104L330.354,224.673z M177.202,67.793c0.176-0.928,0.424-1.832,0.64-2.744
		c0.28-1.168,0.552-2.344,0.896-3.488c0.152-0.528,0.336-1.032,0.504-1.552c0.528-1.592,1.08-3.176,1.728-4.712
		c0.056-0.128,0.104-0.248,0.16-0.376c7.304-17.088,21.832-30.368,39.728-35.984c0.08-0.024,0.152-0.048,0.232-0.072
		c1.76-0.544,3.56-0.992,5.384-1.384c0.32-0.064,0.632-0.152,0.952-0.216c1.64-0.328,3.312-0.568,5-0.768
		c0.432-0.048,0.856-0.128,1.296-0.168c2.072-0.216,4.16-0.328,6.28-0.328c2.2,0,4.368,0.112,6.512,0.328
		c0.64,0.064,1.256,0.2,1.888,0.288c1.488,0.2,2.976,0.384,4.432,0.68c0.76,0.152,1.488,0.392,2.24,0.568
		c1.296,0.312,2.608,0.608,3.872,1c0.808,0.248,1.576,0.584,2.368,0.864c1.168,0.416,2.352,0.8,3.488,1.28
		c0.824,0.344,1.608,0.776,2.408,1.152c1.056,0.504,2.136,0.968,3.16,1.528c0.808,0.44,1.568,0.944,2.352,1.416
		c0.976,0.584,1.968,1.136,2.912,1.768c0.768,0.512,1.48,1.096,2.216,1.64c0.904,0.664,1.832,1.304,2.696,2.016
		c0.72,0.592,1.376,1.24,2.072,1.864c0.832,0.744,1.68,1.464,2.472,2.248c0.664,0.656,1.264,1.376,1.904,2.064
		c0.752,0.816,1.52,1.6,2.232,2.448c0.6,0.728,1.144,1.504,1.712,2.256c0.664,0.872,1.352,1.728,1.976,2.64
		c0.536,0.784,1.008,1.624,1.504,2.44c0.576,0.928,1.176,1.84,1.704,2.8c0.464,0.848,0.856,1.736,1.288,2.608
		c0.48,0.984,0.992,1.944,1.424,2.952c0.384,0.888,0.688,1.816,1.032,2.728c0.392,1.032,0.808,2.056,1.144,3.112
		c0.296,0.936,0.512,1.904,0.768,2.864c0.288,1.072,0.6,2.136,0.832,3.232c0.208,0.976,0.328,1.984,0.488,2.976
		c0.176,1.112,0.392,2.208,0.512,3.336c0.104,1,0.128,2.016,0.192,3.032s0.144,2.024,0.152,3.048
		c-16.424,3.352-33.136-3.992-41.912-18.128c-1.152-1.848-3-3.152-5.128-3.6c-0.552-0.128-1.112-0.176-1.672-0.176
		c-1.584,0-3.144,0.472-4.48,1.368c-12.76,8.608-29.368,13.36-46.76,13.36c-9.224,0-18.384-1.36-26.84-3.952
		C177.178,67.969,177.186,67.881,177.202,67.793z M176.226,84.345c8.896,2.368,18.312,3.656,27.776,3.656
		c17.704,0,34.848-4.248,49.104-12.072c10.568,12.688,26.104,20.072,42.896,20.072c2.016,0,4.024-0.288,6.024-0.512
		c-6.952,27.816-32.08,48.512-62.024,48.512C206.178,144.001,178.474,117.609,176.226,84.345z M296.002,160.001v96v40h-112v-40v-96
		H296.002z M168.002,182.873v56.48l-10.864-8.688l-7.488-5.992l0,0l-3.368-2.696L168.002,182.873z M119.93,291.881l27.12-48.8
		l3.136,2.504l12.528,10.024l-31.408,56.392H56.002c-10.432,0-19.328-6.688-22.632-16h79.568
		C115.842,296.001,118.522,294.425,119.93,291.881z"/>
	<path style="fill:#212329;" d="M424.002,56.001c-30.88,0-56,25.128-56,56c0,21.72,12.648,41.368,32,50.552v93.448
		c0,3.032,1.712,5.8,4.424,7.16c1.128,0.56,2.36,0.84,3.576,0.84c1.696,0,3.384-0.536,4.8-1.6l32-24
		c3.096-2.32,4.08-6.512,2.352-9.976l-6.208-12.424l6.208-12.424c1.128-2.248,1.128-4.904,0-7.16l-6.776-13.544l3.728-18.648
		c21.368-8.232,35.896-29.048,35.896-52.224C480.002,81.129,454.882,56.001,424.002,56.001z M434.986,150.433
		c-2.88,0.832-5.064,3.184-5.648,6.128l-5.176,25.872c-0.352,1.744-0.104,3.552,0.688,5.152l6.208,12.416l-6.208,12.424
		c-1.128,2.248-1.128,4.904,0,7.16l5.016,10.032l-13.864,10.384v-82.792c0-3.392-2.136-6.416-5.336-7.536
		c-15.944-5.648-26.664-20.792-26.664-37.672c0-22.056,17.944-40,40-40s40,17.944,40,40
		C464.002,129.753,452.066,145.553,434.986,150.433z"/>
	<rect x="40.002" y="200.001" style="fill:#212329;" width="16" height="16"/>
	<rect x="416.002" y="88.001" style="fill:#212329;" width="16" height="16"/>
</g>
<g>
</g>
<g>
</g>
<g>
</g>
<g>
</g>
<g>
</g>
<g>
</g>
<g>
</g>
<g>
</g>
<g>
</g>
<g>
</g>
<g>
</g>
<g>
</g>
<g>
</g>
<g>
</g>
<g>
</g>
</svg>
